<svg width="72" height="54" viewBox="0 0 72 54" fill="none" xmlns="http://www.w3.org/2000/svg">
<path d="M1.02167 29.956C1.02167 27.868 1.44167 26.044 2.28167 24.484C3.14567 22.924 4.33367 21.724 5.84567 20.884C7.38167 20.044 9.13367 19.624 11.1017 19.624C13.6217 19.624 15.7217 20.284 17.4017 21.604C19.1057 22.924 20.2217 24.784 20.7497 27.184H14.1977C13.6457 25.648 12.5777 24.88 10.9937 24.88C9.86567 24.88 8.96567 25.324 8.29367 26.212C7.62167 27.076 7.28567 28.324 7.28567 29.956C7.28567 31.588 7.62167 32.848 8.29367 33.736C8.96567 34.6 9.86567 35.032 10.9937 35.032C12.5777 35.032 13.6457 34.264 14.1977 32.728H20.7497C20.2217 35.08 19.1057 36.928 17.4017 38.272C15.6977 39.616 13.5977 40.288 11.1017 40.288C9.13367 40.288 7.38167 39.868 5.84567 39.028C4.33367 38.188 3.14567 36.988 2.28167 35.428C1.44167 33.868 1.02167 32.044 1.02167 29.956ZM33.1865 40.288C31.2185 40.288 29.4425 39.868 27.8585 39.028C26.2985 38.188 25.0625 36.988 24.1505 35.428C23.2625 33.868 22.8185 32.044 22.8185 29.956C22.8185 27.892 23.2745 26.08 24.1865 24.52C25.0985 22.936 26.3465 21.724 27.9305 20.884C29.5145 20.044 31.2905 19.624 33.2585 19.624C35.2265 19.624 37.0025 20.044 38.5865 20.884C40.1705 21.724 41.4185 22.936 42.3305 24.52C43.2425 26.08 43.6985 27.892 43.6985 29.956C43.6985 32.02 43.2305 33.844 42.2945 35.428C41.3825 36.988 40.1225 38.188 38.5145 39.028C36.9305 39.868 35.1545 40.288 33.1865 40.288ZM33.1865 34.96C34.3625 34.96 35.3585 34.528 36.1745 33.664C37.0145 32.8 37.4345 31.564 37.4345 29.956C37.4345 28.348 37.0265 27.112 36.2105 26.248C35.4185 25.384 34.4345 24.952 33.2585 24.952C32.0585 24.952 31.0625 25.384 30.2705 26.248C29.4785 27.088 29.0825 28.324 29.0825 29.956C29.0825 31.564 29.4665 32.8 30.2345 33.664C31.0265 34.528 32.0105 34.96 33.1865 34.96ZM59.2404 40L53.1204 31.576V40H46.9644V13.36H53.1204V28.084L59.2044 19.912H66.8004L58.4484 29.992L66.8724 40H59.2404Z" fill="white"/>
<line x1="4.55877" y1="49.8699" x2="67.9503" y2="41.0655" stroke="url(#paint0_linear)" stroke-width="6" stroke-linecap="round"/>
<defs>
<linearGradient id="paint0_linear" x1="36.6672" y1="48.4392" x2="36.8048" y2="49.4297" gradientUnits="userSpaceOnUse">
<stop stop-color="#78FF49"/>
<stop offset="1" stop-color="#B3FB9A"/>
</linearGradient>
</defs>
</svg>
