<svg width="37" height="28" viewBox="0 0 37 28" fill="none" xmlns="http://www.w3.org/2000/svg">
<path d="M0.760836 14.978C0.760836 13.934 0.970836 13.022 1.39084 12.242C1.82284 11.462 2.41684 10.862 3.17284 10.442C3.94084 10.022 4.81684 9.812 5.80084 9.812C7.06084 9.812 8.11084 10.142 8.95084 10.802C9.80284 11.462 10.3608 12.392 10.6248 13.592H7.34884C7.07284 12.824 6.53884 12.44 5.74684 12.44C5.18284 12.44 4.73284 12.662 4.39684 13.106C4.06084 13.538 3.89284 14.162 3.89284 14.978C3.89284 15.794 4.06084 16.424 4.39684 16.868C4.73284 17.3 5.18284 17.516 5.74684 17.516C6.53884 17.516 7.07284 17.132 7.34884 16.364H10.6248C10.3608 17.54 9.80284 18.464 8.95084 19.136C8.09884 19.808 7.04884 20.144 5.80084 20.144C4.81684 20.144 3.94084 19.934 3.17284 19.514C2.41684 19.094 1.82284 18.494 1.39084 17.714C0.970836 16.934 0.760836 16.022 0.760836 14.978ZM16.8433 20.144C15.8593 20.144 14.9713 19.934 14.1793 19.514C13.3993 19.094 12.7813 18.494 12.3253 17.714C11.8813 16.934 11.6593 16.022 11.6593 14.978C11.6593 13.946 11.8873 13.04 12.3433 12.26C12.7993 11.468 13.4233 10.862 14.2153 10.442C15.0073 10.022 15.8953 9.812 16.8793 9.812C17.8633 9.812 18.7513 10.022 19.5433 10.442C20.3353 10.862 20.9593 11.468 21.4153 12.26C21.8713 13.04 22.0993 13.946 22.0993 14.978C22.0993 16.01 21.8653 16.922 21.3973 17.714C20.9413 18.494 20.3113 19.094 19.5073 19.514C18.7153 19.934 17.8273 20.144 16.8433 20.144ZM16.8433 17.48C17.4313 17.48 17.9293 17.264 18.3373 16.832C18.7573 16.4 18.9673 15.782 18.9673 14.978C18.9673 14.174 18.7633 13.556 18.3553 13.124C17.9593 12.692 17.4673 12.476 16.8793 12.476C16.2793 12.476 15.7813 12.692 15.3853 13.124C14.9893 13.544 14.7913 14.162 14.7913 14.978C14.7913 15.782 14.9833 16.4 15.3673 16.832C15.7633 17.264 16.2553 17.48 16.8433 17.48ZM29.8702 20L26.8102 15.788V20H23.7322V6.68H26.8102V14.042L29.8522 9.956H33.6502L29.4742 14.996L33.6862 20H29.8702Z" fill="white"/>
<line x1="2.70585" y1="25.7439" x2="34.7439" y2="21.2942" stroke="url(#paint0_linear)" stroke-width="4" stroke-linecap="round"/>
<defs>
<linearGradient id="paint0_linear" x1="19" y1="25.5" x2="19.1376" y2="26.4905" gradientUnits="userSpaceOnUse">
<stop stop-color="#78FF49"/>
<stop offset="1" stop-color="#B3FB9A"/>
</linearGradient>
</defs>
</svg>