<svg width="69" height="69" viewBox="0 0 69 69" fill="none" xmlns="http://www.w3.org/2000/svg">
<path d="M40.25 40.25H63.25V63.25H40.25V40.25Z" stroke="#B3FB9A" stroke-width="5" stroke-linejoin="round"/>
<path d="M18.6875 5.75L31.625 28.75H5.75L18.6875 5.75Z" stroke="#B3FB9A" stroke-width="5" stroke-linejoin="round"/>
<path d="M51.75 28.75C54.8 28.75 57.7251 27.5384 59.8817 25.3817C62.0384 23.2251 63.25 20.3 63.25 17.25C63.25 14.2 62.0384 11.2749 59.8817 9.11827C57.7251 6.9616 54.8 5.75 51.75 5.75C48.7 5.75 45.7749 6.9616 43.6183 9.11827C41.4616 11.2749 40.25 14.2 40.25 17.25C40.25 20.3 41.4616 23.2251 43.6183 25.3817C45.7749 27.5384 48.7 28.75 51.75 28.75Z" stroke="#B3FB9A" stroke-width="5" stroke-linejoin="round"/>
<path d="M5.75 40.25L28.75 63.25" stroke="#B3FB9A" stroke-width="5" stroke-linecap="round" stroke-linejoin="round"/>
<path d="M28.75 40.25L5.75 63.25" stroke="#B3FB9A" stroke-width="5" stroke-linecap="round" stroke-linejoin="round"/>
</svg>
